<svg width="18" height="18" viewBox="0 0 18 18" fill="none" xmlns="http://www.w3.org/2000/svg">
<path d="M2.25 3.75C2.25 2.92157 2.92157 2.25 3.75 2.25H14.25C15.0784 2.25 15.75 2.92157 15.75 3.75V4.5C15.75 5.32843 15.0784 6 14.25 6H3.75C2.92157 6 2.25 5.32843 2.25 4.5V3.75Z" fill="#56606D"/>
<path d="M2.25 7.5C2.25 6.67157 2.92157 6 3.75 6H14.25C15.0784 6 15.75 6.67157 15.75 7.5V8.25C15.75 9.07843 15.0784 9.75 14.25 9.75H3.75C2.92157 9.75 2.25 9.07843 2.25 8.25V7.5Z" fill="#56606D"/>
<path d="M2.25 11.25C2.25 10.4216 2.92157 9.75 3.75 9.75H14.25C15.0784 9.75 15.75 10.4216 15.75 11.25V12C15.75 12.8284 15.0784 13.5 14.25 13.5H3.75C2.92157 13.5 2.25 12.8284 2.25 12V11.25Z" fill="#56606D"/>
<path d="M2.25 15C2.25 14.1716 2.92157 13.5 3.75 13.5H14.25C15.0784 13.5 15.75 14.1716 15.75 15V15.75C15.75 16.5784 15.0784 17.25 14.25 17.25H3.75C2.92157 17.25 2.25 16.5784 2.25 15.75V15Z" fill="#56606D"/>
<circle cx="5.25" cy="4.125" r="0.75" fill="white"/>
<circle cx="5.25" cy="7.875" r="0.75" fill="white"/>
<circle cx="5.25" cy="11.625" r="0.75" fill="white"/>
<circle cx="5.25" cy="15.375" r="0.75" fill="white"/>
</svg>
