<svg xmlns="http://www.w3.org/2000/svg" width="40" height="33" viewBox="0 0 40 33" fill="none">
<path d="M35.9686 7.49502L31.3903 5.43301L19.923 0.270352C19.124 -0.0901174 18.1371 -0.0901174 17.3342 0.270352L1.29242 7.49502C0.493467 7.85549 0 8.52144 0 9.24238V23.6917C0.00391645 24.4127 0.497392 25.0786 1.30026 25.4391L17.3342 32.6637C18.1371 33.0273 19.124 33.0273 19.923 32.6637L35.9686 25.4421C36.7676 25.0786 37.2611 24.4127 37.2611 23.6917V9.24238C37.2611 8.52144 36.7676 7.85549 35.9686 7.49502ZM31.3825 22.2101L18.6305 27.9501L11.7689 24.8587L14.2911 23.7223C16.9739 22.5156 18.6305 20.2825 18.6305 17.8631V16.4732L5.89034 22.2101H5.8825V10.727L18.6305 4.98395L25.5039 8.08154L22.97 9.22099C20.2833 10.4307 18.6305 12.6638 18.6305 15.0832V16.4732L31.3825 10.7331V22.2101Z" fill="#E04023"/>
</svg>